<?xml version="1.0" encoding="utf-8"?>
<!-- Generator: Adobe Illustrator 19.0.0, SVG Export Plug-In . SVG Version: 6.00 Build 0)  -->
<svg version="1.1" id="Layer_1" xmlns="http://www.w3.org/2000/svg" xmlns:xlink="http://www.w3.org/1999/xlink" x="0px" y="0px"
	 viewBox="0 0 120 38" style="enable-background:new 0 0 120 38;" xml:space="preserve">
<style type="text/css">
	.Drop_x0020_Shadow{fill:none;}
	.Outer_x0020_Glow_x0020_5_x0020_pt{fill:none;}
	.Blue_x0020_Neon{fill:none;stroke:#8AACDA;stroke-width:7;stroke-linecap:round;stroke-linejoin:round;}
	.Chrome_x0020_Highlight{fill:url(#SVGID_1_);stroke:#FFFFFF;stroke-width:0.3629;stroke-miterlimit:1;}
	.Jive_GS{fill:#FFDD00;}
	.Alyssa_GS{fill:#A6D0E4;}
	.st0{fill:#FF5900;}
	.st1{fill:#FFFFFF;}
	.st2{fill:#25C105;}
	.st3{fill:#3AABEF;}
</style>
<linearGradient id="SVGID_1_" gradientUnits="userSpaceOnUse" x1="0" y1="0" x2="4.489659e-011" y2="-1">
	<stop  offset="0" style="stop-color:#656565"/>
	<stop  offset="0.618" style="stop-color:#1B1B1B"/>
	<stop  offset="0.6292" style="stop-color:#545454"/>
	<stop  offset="0.9831" style="stop-color:#3E3E3E"/>
</linearGradient>
<g id="Layer_2">
	<g id="Layer_1-2">
		<path id="XMLID_26_" class="st0" d="M7.5,22.3C7.6,24,8.1,25.3,8.9,26c0.9,0.8,2,1.2,3.2,1.2c0.6,0,1.2-0.1,1.7-0.2
			c0.4-0.1,0.9-0.3,1.3-0.5l1-0.5c0.3-0.2,0.6-0.2,0.9-0.2c0.3,0,0.7,0.1,0.9,0.4l1.4,1.8c-0.5,0.6-1.1,1.1-1.7,1.5
			c-0.6,0.4-1.3,0.7-1.9,0.9c-0.7,0.2-1.3,0.4-2,0.5c-0.7,0.1-1.3,0.1-2,0.1c-1.2,0-2.4-0.2-3.5-0.6c-1.1-0.4-2.1-1-2.9-1.9
			c-0.9-0.9-1.5-1.9-1.9-3c-0.5-1.4-0.7-2.8-0.7-4.2c0-1.2,0.2-2.4,0.6-3.5c0.4-1.1,1-2,1.7-2.8c0.8-0.8,1.7-1.5,2.8-1.9
			c1.2-0.5,2.4-0.7,3.7-0.7c1.1,0,2.2,0.2,3.2,0.6c1.9,0.7,3.5,2.2,4.2,4.2c0.4,1.1,0.6,2.3,0.6,3.5c0,0.3,0,0.6,0,0.9
			c0,0.2-0.1,0.4-0.2,0.6c-0.1,0.1-0.2,0.2-0.3,0.3c-0.2,0.1-0.4,0.1-0.5,0.1L7.5,22.3z M15.1,19.4c0-0.5-0.1-1-0.2-1.4
			c-0.1-0.4-0.4-0.9-0.7-1.2c-0.3-0.4-0.7-0.6-1.1-0.8c-0.5-0.2-1-0.3-1.6-0.3c-1-0.1-2,0.3-2.7,1c-0.7,0.8-1.2,1.8-1.3,2.8
			L15.1,19.4z"/>
		<path id="XMLID_23_" class="st1" d="M27,14.9c0.4-0.4,0.7-0.8,1.2-1.1c0.4-0.3,0.9-0.6,1.3-0.9c0.5-0.2,1-0.4,1.5-0.6
			c0.6-0.1,1.2-0.2,1.8-0.2c0.9,0,1.9,0.2,2.7,0.6c0.8,0.4,1.5,1.1,2.1,1.8c0.6,0.9,1.1,1.9,1.3,2.9c0.3,1.3,0.5,2.6,0.5,3.9
			c0,1.3-0.2,2.5-0.6,3.8c-0.3,1.1-0.9,2.1-1.6,3c-0.7,0.8-1.5,1.5-2.4,2c-1,0.5-2.1,0.7-3.2,0.7c-0.9,0-1.7-0.1-2.5-0.4
			c-0.7-0.3-1.3-0.7-1.9-1.2v7.2h-4.8V12.5h3c0.6,0,1.1,0.3,1.2,0.8L27,14.9z M27.2,25.9c0.4,0.5,0.9,0.9,1.5,1.1
			c0.5,0.2,1.1,0.3,1.7,0.3c0.6,0,1.1-0.1,1.6-0.3c0.5-0.2,0.9-0.6,1.2-1.1c0.4-0.5,0.6-1.2,0.8-1.8c0.2-0.9,0.3-1.7,0.3-2.6
			c0-0.9-0.1-1.7-0.2-2.6c-0.1-0.6-0.3-1.2-0.7-1.7c-0.3-0.4-0.6-0.7-1-0.9c-0.4-0.2-0.9-0.3-1.3-0.3c-0.7,0-1.5,0.1-2.1,0.5
			c-0.6,0.4-1.2,0.9-1.6,1.5L27.2,25.9z"/>
		<path id="XMLID_8_" class="st1" d="M47,15.5c0.5-0.9,1.2-1.7,2-2.4c0.7-0.6,1.7-0.9,2.6-0.9c0.7,0,1.4,0.2,2,0.6l-0.3,3.6
			c0,0.4-0.3,0.6-0.7,0.6c0,0,0,0-0.1,0c-0.3,0-0.5,0-0.8-0.1c-0.3-0.1-0.7-0.1-1-0.1c-0.4,0-0.8,0.1-1.2,0.2
			c-0.3,0.1-0.6,0.3-0.9,0.5c-0.3,0.2-0.5,0.5-0.7,0.9c-0.2,0.4-0.4,0.8-0.6,1.2v11h-4.8V12.5h2.9c0.4,0,0.7,0.1,1,0.3
			c0.2,0.3,0.4,0.6,0.4,0.9L47,15.5z"/>
		<path id="XMLID_19_" class="st1" d="M59.1,22.3c0.2,1.7,0.7,2.9,1.5,3.7c0.9,0.8,2,1.2,3.2,1.2c0.6,0,1.2-0.1,1.7-0.2
			c0.4-0.1,0.9-0.3,1.3-0.5l1-0.5c0.3-0.2,0.6-0.2,0.9-0.2c0.3,0,0.7,0.1,0.9,0.4l1.4,1.8c-0.5,0.6-1.1,1.1-1.7,1.5
			c-0.6,0.4-1.3,0.7-1.9,0.9c-0.7,0.2-1.3,0.4-2,0.5c-0.7,0.1-1.3,0.1-2,0.1c-1.2,0-2.4-0.2-3.5-0.7c-1.1-0.4-2-1-2.9-1.8
			c-0.8-0.9-1.5-1.9-1.9-3c-0.5-1.3-0.7-2.8-0.7-4.2c0-1.2,0.2-2.4,0.6-3.5c0.4-1.1,1-2,1.7-2.8c0.8-0.8,1.7-1.5,2.8-1.9
			c2.2-0.9,4.6-0.9,6.9-0.2c1.9,0.7,3.5,2.2,4.2,4.2c0.4,1.1,0.6,2.3,0.6,3.5c0,0.3,0,0.6-0.1,0.9c0,0.2-0.1,0.4-0.2,0.6
			c-0.1,0.1-0.2,0.2-0.3,0.3c-0.2,0.1-0.4,0.1-0.5,0.1L59.1,22.3z M66.7,19.4c0-0.5-0.1-1-0.2-1.4c-0.1-0.4-0.4-0.9-0.7-1.2
			c-0.3-0.4-0.7-0.6-1.1-0.8c-0.5-0.2-1-0.3-1.6-0.3c-1,0-2,0.3-2.7,1c-0.7,0.8-1.2,1.8-1.3,2.8L66.7,19.4z"/>
		<path id="XMLID_5_" class="st1" d="M78.5,14.6c0.4-0.3,0.7-0.7,1.1-1c0.4-0.3,0.8-0.5,1.2-0.8c0.5-0.2,0.9-0.4,1.4-0.5
			c0.5-0.1,1.1-0.2,1.7-0.2c0.9,0,1.8,0.2,2.6,0.5c0.7,0.3,1.4,0.8,1.9,1.4c0.5,0.6,0.9,1.4,1.2,2.2c0.3,0.9,0.4,1.8,0.4,2.8v11.5
			h-4.8V19.2c0.1-0.8-0.2-1.7-0.7-2.3c-0.5-0.6-1.3-0.9-2.1-0.8c-0.7,0-1.3,0.1-1.9,0.4c-0.6,0.3-1.2,0.7-1.7,1.2v13h-4.8V12.5h3
			c0.6,0,1.1,0.3,1.2,0.8L78.5,14.6z"/>
		<path id="XMLID_4_" class="st1" d="M107.1,14.5c0,0.3-0.1,0.7-0.2,1c-0.1,0.3-0.3,0.6-0.4,0.8L98.4,27h8.5v3.6H92.8v-2
			c0-0.3,0.1-0.5,0.2-0.8c0.1-0.3,0.3-0.6,0.5-0.9l8.2-10.8h-8.3v-3.6h13.8V14.5z"/>
		<circle id="XMLID_3_" class="st0" cx="105.6" cy="5" r="2.5"/>
		<circle id="XMLID_13_" class="st2" cx="114.9" cy="4.8" r="2.5"/>
		<circle id="XMLID_14_" class="st3" cx="114.9" cy="14.2" r="2.5"/>
	</g>
</g>
</svg>
